<svg width="30" height="26" viewBox="0 0 30 26" fill="none" xmlns="http://www.w3.org/2000/svg">
<path fill-rule="evenodd" clip-rule="evenodd" d="M0 2.16666C0 1.59203 0.222076 1.04093 0.617371 0.6346C1.01267 0.228273 1.54881 0 2.10784 0H27.4019C27.961 0 28.4971 0.228273 28.8924 0.6346C29.2877 1.04093 29.5098 1.59203 29.5098 2.16666C29.5098 2.7413 29.2877 3.2924 28.8924 3.69873C28.4971 4.10506 27.961 4.33334 27.4019 4.33334H2.10784C1.54881 4.33334 1.01267 4.10506 0.617371 3.69873C0.222076 3.2924 0 2.7413 0 2.16666Z" fill="white"/>
<path fill-rule="evenodd" clip-rule="evenodd" d="M0 13C0 12.4253 0.222076 11.8743 0.617371 11.4679C1.01267 11.0616 1.54881 10.8334 2.10784 10.8334H14.7549C15.3139 10.8334 15.8501 11.0616 16.2454 11.4679C16.6406 11.8743 16.8628 12.4253 16.8628 13C16.8628 13.5747 16.6406 14.1257 16.2454 14.5321C15.8501 14.9384 15.3139 15.1666 14.7549 15.1666H2.10784C1.54881 15.1666 1.01267 14.9384 0.617371 14.5321C0.222076 14.1257 0 13.5747 0 13Z" fill="white"/>
<path fill-rule="evenodd" clip-rule="evenodd" d="M0 23.8334C0 23.2587 0.222076 22.7076 0.617371 22.3013C1.01267 21.895 1.54881 21.6666 2.10784 21.6666H27.4019C27.961 21.6666 28.4971 21.895 28.8924 22.3013C29.2877 22.7076 29.5098 23.2587 29.5098 23.8334C29.5098 24.408 29.2877 24.9591 28.8924 25.3654C28.4971 25.7717 27.961 26 27.4019 26H2.10784C1.54881 26 1.01267 25.7717 0.617371 25.3654C0.222076 24.9591 0 24.408 0 23.8334Z" fill="white"/>
</svg>
