<svg width="20" height="17" viewBox="0 0 20 17" fill="none" xmlns="http://www.w3.org/2000/svg">
<path fill-rule="evenodd" clip-rule="evenodd" d="M0 1.41667C0 1.04094 0.148051 0.680609 0.41158 0.41493C0.675114 0.149256 1.03254 0 1.40523 0H18.268C18.6407 0 18.9981 0.149256 19.2616 0.41493C19.5251 0.680609 19.6732 1.04094 19.6732 1.41667C19.6732 1.79239 19.5251 2.15273 19.2616 2.4184C18.9981 2.68408 18.6407 2.83333 18.268 2.83333H1.40523C1.03254 2.83333 0.675114 2.68408 0.41158 2.4184C0.148051 2.15273 0 1.79239 0 1.41667Z" fill="white"/>
<path fill-rule="evenodd" clip-rule="evenodd" d="M0 8.5C0 8.12426 0.148051 7.76394 0.41158 7.49826C0.675114 7.23259 1.03254 7.08335 1.40523 7.08335H9.83659C10.2093 7.08335 10.5667 7.23259 10.8302 7.49826C11.0938 7.76394 11.2418 8.12426 11.2418 8.5C11.2418 8.87574 11.0938 9.23606 10.8302 9.50173C10.5667 9.76741 10.2093 9.91665 9.83659 9.91665H1.40523C1.03254 9.91665 0.675114 9.76741 0.41158 9.50173C0.148051 9.23606 0 8.87574 0 8.5Z" fill="white"/>
<path fill-rule="evenodd" clip-rule="evenodd" d="M0 15.5833C0 15.2076 0.148051 14.8473 0.41158 14.5816C0.675114 14.3159 1.03254 14.1667 1.40523 14.1667H18.268C18.6407 14.1667 18.9981 14.3159 19.2616 14.5816C19.5251 14.8473 19.6732 15.2076 19.6732 15.5833C19.6732 15.959 19.5251 16.3194 19.2616 16.5851C18.9981 16.8508 18.6407 17 18.268 17H1.40523C1.03254 17 0.675114 16.8508 0.41158 16.5851C0.148051 16.3194 0 15.959 0 15.5833Z" fill="white"/>
</svg>
