<svg width="237" height="55" viewBox="0 0 237 55" fill="none" xmlns="http://www.w3.org/2000/svg">
<g clip-path="url(#clip0)">
<path fill-rule="evenodd" clip-rule="evenodd" d="M20.0873 23.9558C19.615 27.0846 17.6018 28.1643 15.4985 28.1643C12.2132 28.1643 11.0325 27.026 11.3636 24.8314C11.7127 22.5184 13.6714 21.3755 18.124 21.3755H20.483L20.0873 23.9558ZM31.7618 20.3871L32.5679 15.0484C34.101 4.8915 28.716 0.0743637 19.3144 0.0743637C9.59508 0.0743637 4.55832 4.32869 3.92157 8.59565L3.28483 12.7971C6.34852 10.5416 8.926 9.02876 15.2922 9.02876C19.9341 9.02876 21.9894 9.72362 21.5728 12.5442L21.3474 13.9952H19.6834C7.30711 13.9952 1.27576 17.876 0.12416 25.509C-1.0593 33.3561 6.44364 36.4997 13.0019 36.4997C25.3684 36.4988 29.8662 32.9206 31.7618 20.3871Z" fill="white"/>
<path fill-rule="evenodd" clip-rule="evenodd" d="M56.6855 0.143763C45.3634 0.143763 36.5921 8.26706 34.9635 19.0134C33.3151 29.8969 39.3617 36.5321 49.0676 36.5321C53.3947 36.5321 56.0959 34.2233 57.8435 31.6564L55.1686 47.3154C54.3721 52.5595 55.9776 55 61.7296 55H65.3198L71.2629 17.8324C72.9376 6.75796 67.9466 0.143763 56.6855 0.143763ZM54.2623 9.20164C58.714 9.20164 60.7447 11.7568 59.7104 18.584C58.8156 24.465 55.6387 27.0266 52.4882 27.0266C48.4687 27.0266 45.8524 24.7164 46.9011 17.7744C47.7706 12.0859 51.416 9.20164 54.2623 9.20164Z" fill="white"/>
<path fill-rule="evenodd" clip-rule="evenodd" d="M109.669 20.3225L111.658 7.16954C112.415 2.1417 110.118 0.143763 105.424 0.143763H100.846L97.8579 19.8833C97.0309 25.3322 94.5679 26.9704 91.7803 26.9704C88.5689 26.9704 86.4522 25.3977 87.2178 20.3225L89.2057 7.16954C89.9985 1.89025 88.0415 0.143763 82.9143 0.143763H78.3347L75.3361 20.0004C73.6576 31.0421 78.8445 36.4988 89.8414 36.4988C100.306 36.4988 108.001 31.3722 109.669 20.3225Z" fill="white"/>
<path fill-rule="evenodd" clip-rule="evenodd" d="M124.245 36.499H120.296C115.274 36.499 112.803 34.4991 113.566 29.4727L117.988 0.143328H120.898C127.383 0.143328 129.457 2.08882 128.512 8.35183L124.245 36.499Z" fill="white"/>
<path fill-rule="evenodd" clip-rule="evenodd" d="M161.981 36.4988L164.954 16.8202C166.484 6.58799 162.574 0.143763 150.514 0.143763C139.698 0.143763 132.217 6.58846 130.721 16.5069L128.776 29.4727C128.014 34.4986 130.484 36.4988 135.511 36.4988H139.448L142.516 16.3117C143.155 12.121 145.352 9.79301 148.757 9.79301C152.702 9.79301 153.932 11.8687 153.248 16.5069L151.267 29.4727C150.488 34.7445 151.833 36.4988 157.015 36.4988H161.981Z" fill="white"/>
<path fill-rule="evenodd" clip-rule="evenodd" d="M168.066 19.0644C166.543 29.2208 173.357 36.4988 183.056 36.4988C194.819 36.4988 202.663 29.2208 204.347 17.9383C205.985 7.27627 198.691 0.133913 189.435 0.133913C178.72 0.133913 169.8 7.6635 168.066 19.0644ZM192.577 19.0026C191.852 23.7803 188.93 27.219 185.201 27.219C181.059 27.219 178.896 24.3264 179.895 17.6873C180.623 12.9881 184.042 9.53407 187.274 9.53407C191.352 9.53407 193.513 12.7967 192.577 19.0026Z" fill="white"/>
<path fill-rule="evenodd" clip-rule="evenodd" d="M234.551 24.3858C235.441 18.5606 232.068 15.4323 226.533 14.5005C219.586 13.293 218.912 12.8552 219.128 11.5456C219.322 10.0983 220.944 8.90617 225.319 8.90617C229.901 8.90617 233.299 10.0983 235.353 11.7998L236.195 8.21694C236.96 3.06924 232.864 0 225.303 0C217.527 0 209.155 4.20843 207.909 12.482C207.075 17.9935 209.85 20.8268 215.846 21.7029C222.746 22.6992 223.46 23.3135 223.221 24.8924C222.964 26.5949 221.459 27.5904 217.195 27.5904C212.372 27.5904 209.155 26.2691 207.177 24.5801L206.343 28.0296C205.587 33.0588 208.414 36.4988 217.706 36.4988C227.037 36.4988 233.444 31.7974 234.551 24.3858Z" fill="white"/>
</g>
<defs>
<clipPath id="clip0">
<rect width="237" height="55" fill="white"/>
</clipPath>
</defs>
</svg>
