<svg width="125" height="29" viewBox="0 0 125 29" fill="none" xmlns="http://www.w3.org/2000/svg">
<g clip-path="url(#clip0)">
<path fill-rule="evenodd" clip-rule="evenodd" d="M10.5946 12.6313C10.3455 14.281 9.28364 14.8503 8.17432 14.8503C6.44154 14.8503 5.81883 14.2501 5.99344 13.0929C6.17756 11.8734 7.21063 11.2707 9.55908 11.2707H10.8033L10.5946 12.6313ZM16.752 10.7495L17.1772 7.93459C17.9858 2.57915 15.1456 0.0392094 10.1869 0.0392094C5.0607 0.0392094 2.40418 2.2824 2.06834 4.53225L1.73251 6.74754C3.34838 5.5583 4.7078 4.76062 8.06548 4.76062C10.5137 4.76062 11.5978 5.127 11.378 6.61421L11.2592 7.3793H10.3815C3.85396 7.3793 0.672867 9.4255 0.0654851 13.4502C-0.558703 17.5877 3.39854 19.2453 6.85752 19.2453C13.38 19.2448 15.7522 17.3581 16.752 10.7495Z" fill="white"/>
<path fill-rule="evenodd" clip-rule="evenodd" d="M29.8974 0.0758018C23.9258 0.0758018 19.2996 4.35899 18.4406 10.0252C17.5712 15.7638 20.7603 19.2624 25.8795 19.2624C28.1617 19.2624 29.5864 18.045 30.5082 16.6916L29.0973 24.9481C28.6773 27.7132 29.524 29 32.5578 29H34.4513L37.5859 9.40256C38.4692 3.56329 35.8368 0.0758018 29.8974 0.0758018ZM28.6193 4.85178C30.9672 4.85178 32.0383 6.19902 31.4928 9.79885C31.0209 12.8997 29.3453 14.2504 27.6836 14.2504C25.5636 14.2504 24.1837 13.0323 24.7368 9.37198C25.1954 6.37256 27.1181 4.85178 28.6193 4.85178Z" fill="white"/>
<path fill-rule="evenodd" clip-rule="evenodd" d="M57.8425 10.7155L58.8915 3.7803C59.2906 1.12926 58.079 0.0758018 55.6032 0.0758018H53.1888L51.6129 10.4839C51.1767 13.357 49.8776 14.2208 48.4074 14.2208C46.7136 14.2208 45.5972 13.3915 46.001 10.7155L47.0495 3.7803C47.4676 0.996679 46.4355 0.0758018 43.7312 0.0758018H41.3158L39.7343 10.5457C38.849 16.3677 41.5847 19.2448 47.3848 19.2448C52.9041 19.2448 56.9626 16.5417 57.8425 10.7155Z" fill="white"/>
<path fill-rule="evenodd" clip-rule="evenodd" d="M65.5299 19.2449H63.4472C60.7985 19.2449 59.4951 18.1904 59.8977 15.5402L62.2301 0.075573H63.7649C67.1853 0.075573 68.2792 1.10138 67.7805 4.40369L65.5299 19.2449Z" fill="white"/>
<path fill-rule="evenodd" clip-rule="evenodd" d="M85.4328 19.2448L87.0012 8.86883C87.8078 3.47367 85.7456 0.0758018 79.3849 0.0758018C73.6803 0.0758018 69.7344 3.47392 68.9459 8.70366L67.9198 15.5402C67.518 18.1902 68.8209 19.2448 71.472 19.2448H73.5485L75.1666 8.60071C75.5037 6.3911 76.6623 5.16359 78.4583 5.16359C80.5392 5.16359 81.1878 6.25803 80.8271 8.70366L79.7823 15.5402C79.3712 18.3198 80.0808 19.2448 82.814 19.2448H85.4328Z" fill="white"/>
<path fill-rule="evenodd" clip-rule="evenodd" d="M88.6424 10.0522C87.839 15.4073 91.4329 19.2448 96.5485 19.2448C102.753 19.2448 106.89 15.4073 107.778 9.45835C108.642 3.83658 104.795 0.0706081 99.913 0.0706081C94.2618 0.0706081 89.5572 4.04075 88.6424 10.0522ZM101.57 10.0196C101.188 12.5387 99.6468 14.3518 97.6797 14.3518C95.495 14.3518 94.3545 12.8266 94.8812 9.32602C95.2656 6.84829 97.0684 5.02706 98.773 5.02706C100.924 5.02706 102.064 6.74735 101.57 10.0196Z" fill="white"/>
<path fill-rule="evenodd" clip-rule="evenodd" d="M123.708 12.858C124.178 9.78649 122.399 8.13702 119.479 7.64572C115.815 7.00905 115.46 6.77818 115.574 6.08767C115.676 5.32455 116.532 4.69598 118.839 4.69598C121.256 4.69598 123.048 5.32455 124.131 6.22172L124.575 4.33257C124.979 1.61833 122.818 0 118.831 0C114.729 0 110.314 2.21899 109.657 6.58142C109.217 9.48748 110.68 10.9814 113.843 11.4433C117.482 11.9687 117.859 12.2926 117.733 13.1251C117.597 14.0228 116.803 14.5477 114.554 14.5477C112.011 14.5477 110.314 13.851 109.27 12.9604L108.831 14.7792C108.432 17.431 109.923 19.2448 114.824 19.2448C119.745 19.2448 123.124 16.7659 123.708 12.858Z" fill="white"/>
</g>
<defs>
<clipPath id="clip0">
<rect width="125" height="29" fill="white"/>
</clipPath>
</defs>
</svg>
